<?xml version="1.0" encoding="utf-8"?>
<svg width="16" height="16" fill="currentColor" class="bi bi-dice-1" viewBox="0 0 16 16" xmlns="http://www.w3.org/2000/svg">
  <rect width="16." height="16" style="fill: #ffffff"/>
  <circle cx="8" cy="8" r="1.5" style="fill: rgb(235, 77, 76);"/>
  <path d="M 13 1 C 14.105 1 15.112 1.895 15.112 3 L 15 13 C 15 14.105 14.105 15 13 15 L 3 15 C 1.895 15 1 14.105 1 13 L 1 3 C 1 1.895 1.895 1 3 1 L 13 1 Z M 3 0 C 1.343 0 0 1.343 0 3 L 0 13 C 0 14.657 1.343 16 3 16 L 13 16 C 14.657 16 16 14.657 16 13 L 16 3 C 16 1.343 14.657 0 13 0 L 3 0 Z" style="fill: rgb(204, 204, 204); visibility: hidden;"/>
</svg>