<?xml version="1.0" encoding="utf-8"?>
<svg width="16" height="16" fill="currentColor" class="bi bi-dice-6" viewBox="0 0 16 16" xmlns="http://www.w3.org/2000/svg">
  <rect width="16." height="16" style="fill: #ffffff"/>
  <path d="M5.5 4a1.5 1.5 0 1 1-3 0 1.5 1.5 0 0 1 3 0zm8 0a1.5 1.5 0 1 1-3 0 1.5 1.5 0 0 1 3 0zm0 8a1.5 1.5 0 1 1-3 0 1.5 1.5 0 0 1 3 0zm0-4a1.5 1.5 0 1 1-3 0 1.5 1.5 0 0 1 3 0zm-8 4a1.5 1.5 0 1 1-3 0 1.5 1.5 0 0 1 3 0zm0-4a1.5 1.5 0 1 1-3 0 1.5 1.5 0 0 1 3 0z" style="fill: rgb(235, 77, 76);"/>
</svg>